<svg xmlns="http://www.w3.org/2000/svg" version="1.1" xmlns:xlink="http://www.w3.org/1999/xlink" viewBox="0 0 200 200"><rect width="200" height="200" fill="url('#gradient')"></rect><defs><linearGradient id="gradient" gradientTransform="rotate(0 0.5 0.5)"><stop offset="0%" stop-color="#000000"></stop><stop offset="100%" stop-color="#000000"></stop></linearGradient></defs><g><g fill="#00e658" transform="matrix(8.648167053364268,0,0,8.648167053364268,4.610447829638176,163.99877702735137)" stroke="#000000" stroke-width="0.2"><path d="M0.51-5.36L0.51-5.36Q0.51-7.87 1.59-9.32Q2.68-10.76 4.62-10.76L4.62-10.76Q6.04-10.76 7.00-9.65L7.00-9.65L7.00-15L10.30-15L10.30 0L7.34 0L7.18-1.13Q6.16 0.20 4.60 0.20L4.60 0.20Q2.71 0.20 1.61-1.25Q0.51-2.70 0.51-5.36ZM3.81-5.76L3.80-5.16Q3.80-2.34 5.44-2.34L5.44-2.34Q6.53-2.34 7.00-3.26L7.00-3.26L7.00-7.29Q6.55-8.22 5.46-8.22L5.46-8.22Q3.94-8.22 3.81-5.76L3.81-5.76ZM11.76-5.36L11.76-5.36Q11.76-7.87 12.84-9.32Q13.93-10.76 15.87-10.76L15.87-10.76Q17.29-10.76 18.25-9.65L18.25-9.65L18.25-15L21.55-15L21.55 0L18.59 0L18.43-1.13Q17.41 0.20 15.85 0.20L15.85 0.20Q13.96 0.20 12.86-1.25Q11.76-2.70 11.76-5.36ZM15.06-5.76L15.05-5.16Q15.05-2.34 16.69-2.34L16.69-2.34Q17.78-2.34 18.25-3.26L18.25-3.26L18.25-7.29Q17.80-8.22 16.71-8.22L16.71-8.22Q15.19-8.22 15.06-5.76L15.06-5.76Z"></path></g></g></svg>